<?xml version="1.0" encoding="iso-8859-1"?>
<!-- Generator: Adobe Illustrator 19.0.0, SVG Export Plug-In . SVG Version: 6.00 Build 0)  -->
<svg xmlns="http://www.w3.org/2000/svg" xmlns:xlink="http://www.w3.org/1999/xlink" version="1.1" id="Layer_1" x="0px" y="0px" viewBox="0 0 512 512" style="enable-background:new 0 0 512 512;" xml:space="preserve">
<path style="fill:#61626D;" d="M157.536,111.186c-6.895,16.753-31.035,42.675-55.507,49.532l88.722,88.722l69.846,69.846  l90.848,90.848c6.885-24.573,32.896-48.661,49.53-55.508L157.536,111.186z"/>
<path style="fill:#3F404C;" d="M288.435,295.649c-4.987-4.987-148.064-148.065-154.146-154.147  c-9.743,9.005-20.381,15.886-32.261,19.215l88.722,88.722l69.846,69.846l90.848,90.848c3.328-11.882,10.21-22.518,19.214-32.262  L288.435,295.649z"/>
<g transform="matrix(-0.7071 0.7071 -0.7071 -0.7071 734.78 -31.674)">
	<rect x="269.326" y="120.448" style="fill:#CDCECC;" width="209.405" height="32.144"/>
	<rect x="269.326" y="120.448" style="fill:#E5E5E5;" width="209.405" height="32.144"/>
</g>
<rect x="360.171" y="25.564" transform="matrix(-0.7071 -0.7071 0.7071 -0.7071 535.6898 482.4214)" style="fill:#CDCECC;" width="15.173" height="209.403"/>
<path style="fill:#FF8C01;" d="M303.744,255.018l11.304-11.304c5.209-5.209,5.209-13.653,0-18.863l-29.865-29.865  c-5.208-5.209-13.654-5.209-18.864,0l-11.303,11.304L303.744,255.018z"/>
<path style="fill:#FFA403;" d="M285.183,194.987c-0.229-0.229-0.472-0.436-0.713-0.645c-6.491,7.41-12.432,15.311-17.755,23.648  l37.028,37.027l11.304-11.304c5.209-5.209,5.209-13.653,0-18.863L285.183,194.987z"/>
<path style="fill:#FF8C01;" d="M306.572,255.847l-52.386-52.385c-4.822-4.821-12.64-4.821-17.461,0L33.372,406.816  c-19.288,19.288-19.288,50.559,0,69.847c19.286,19.286,50.558,19.286,69.845,0l203.355-203.354  C311.394,268.487,311.394,260.67,306.572,255.847z"/>
<path style="fill:#F45C0F;" d="M51.993,423.177l210.956-210.954l-8.762-8.762c-4.822-4.821-12.64-4.821-17.461,0L33.372,406.816  c-22.673,22.673-18.064,60.636,9.442,77.234C32.455,464.474,35.513,439.658,51.993,423.177z"/>
<path style="fill:#FFA403;" d="M267.503,216.779C247.705,247.294,236.2,283.685,236.2,322.77c0,6.721,0.341,13.361,1.005,19.907  l69.368-69.367c4.822-4.822,4.822-12.639,0-17.462L267.503,216.779z"/>
<path style="fill:#FFC35A;" d="M306.572,255.847l-52.386-52.385c-4.822-4.821-12.64-4.821-17.461,0l-19.644,19.644l69.847,69.847  l19.644-19.644C311.394,268.487,311.394,260.67,306.572,255.847z"/>
<path style="fill:#F9A346;" d="M234.573,240.598l28.375-28.375l-8.762-8.762c-4.822-4.821-12.64-4.821-17.461,0l-19.644,19.644  L234.573,240.598z"/>
<g>
	<path style="fill:#FFD188;" d="M306.572,255.847l-39.069-39.068c-7.634,11.765-14.027,24.408-19.011,37.739l38.436,38.436   l19.644-19.644C311.394,268.487,311.394,260.67,306.572,255.847z"/>
	<path style="fill:#FFD188;" d="M233.452,276.583c-6.277-6.277-16.456-6.277-22.732,0L58.472,428.831   c-6.277,6.276-6.277,16.455,0,22.732s16.454,6.277,22.732,0l152.247-152.247C239.729,293.038,239.729,282.861,233.452,276.583z"/>
</g>
<path style="fill:#FFC35A;" d="M68.804,439.825l152.247-152.248c4.474-4.474,10.924-5.741,16.536-3.838  c-3.221-11.914-18.154-15.872-26.868-7.156L58.472,428.831c-8.402,8.401-5.086,22.745,6.197,26.571  C63.216,450.025,64.584,444.045,68.804,439.825z"/>
<path style="fill:#FF4848;" d="M477.274,38.031l-5.27-5.27c-4.822-4.822-12.64-4.822-17.462,0l-18.335,18.336l0,0l-1.169,1.169  l22.733,22.732l1.395-1.395l0,0l18.108-18.11C482.096,50.67,482.096,42.853,477.274,38.031z"/>
<path style="fill:#D33333;" d="M445.765,62.991l0.791-0.791h-0.001l18.958-18.961c3.669-3.668,9.011-4.627,13.565-2.899  c-1.019-1.664-1.339-1.846-7.074-7.581c-4.822-4.822-12.64-4.822-17.462,0l-18.335,18.336l0,0l-1.169,1.169L445.765,62.991z"/>
<path style="fill:#A5A6AD;" d="M142.677,28.684C123.558,9.565,95.673,3.354,69.594,10.59c-4.41,1.223-5.886,6.77-2.638,10.018  l47.67,47.67l-11.098,41.42l-41.42,11.098L18.491,77.182c-3.506-3.506-9.523-1.466-10.185,3.439  c-3.145,23.361,4.276,45.987,20.362,62.073c30.056,30.054,79.5,27.072,110.292-3.719C170.392,107.544,172.06,58.068,142.677,28.684z  "/>
<path style="fill:#8A8C93;" d="M53.657,142.695c-13.623-13.624-21.028-31.937-21.067-51.415L18.491,77.182  c-3.506-3.506-9.523-1.466-10.185,3.439c-6.691,49.703,34.52,90.185,84.64,82.072C77.972,160.234,64.322,153.359,53.657,142.695z"/>
<path style="fill:#A5A6AD;" d="M483.475,369.482c-29.985-29.983-79.452-27.121-110.292,3.718  c-56.985,56.984-8.291,149.909,69.364,128.387c4.42-1.225,5.882-6.778,2.639-10.019l-47.669-47.67l11.097-41.42l41.42-11.098  l43.617,43.617c3.501,3.501,9.522,1.474,10.185-3.439C506.981,408.191,499.56,385.567,483.475,369.482z"/>
<path style="fill:#8A8C93;" d="M393.948,485.49c-46.056-46.058-11.791-129.479,56.256-134.777c-27.55-6.896-56.934,2.4-77.02,22.486  c-51.716,51.716-17.029,136.51,54.078,131.062C414.639,501.114,403.176,494.717,393.948,485.49z"/>
<path style="fill:#A1A4AD;" d="M185.977,171.774c4.822,4.821,4.822,12.639,0,17.462l-2.911,2.91c-4.822,4.821-12.64,4.821-17.462,0  l-12.368-12.37c-4.822-4.821-4.822-12.639,0-17.461l2.91-2.911c4.822-4.821,12.64-4.821,17.462,0L185.977,171.774z"/>
<path style="fill:#878993;" d="M154.169,161.383l-0.933,0.934c-4.822,4.823-4.822,12.64,0,17.461l12.368,12.37  c4.822,4.821,12.64,4.821,17.462,0l0.934-0.934L154.169,161.383z"/>
<path style="fill:#A1A4AD;" d="M351.618,337.417c4.822,4.821,4.822,12.64,0,17.461l-2.911,2.911c-4.822,4.821-12.639,4.821-17.462,0  l-12.368-12.37c-4.822-4.821-4.822-12.639,0-17.461l2.91-2.911c4.823-4.821,12.641-4.821,17.462,0L351.618,337.417z"/>
<path style="fill:#878993;" d="M319.81,327.024l-0.933,0.934c-4.822,4.823-4.822,12.64,0,17.461l12.368,12.37  c4.823,4.821,12.64,4.821,17.462,0l0.934-0.934L319.81,327.024z"/>
<path d="M402.755,345.921l-85.696-85.696c-0.448-2.003-1.211-3.943-2.284-5.754l6.455-6.456c7.535-7.536,8.068-19.448,1.623-27.619  l95.3-95.299c2.928-2.929,2.928-7.674,0-10.602c-2.928-2.926-7.673-2.928-10.602,0l-95.187,95.187  c-13.199-13.197-8.657-8.656-12.132-12.13L436.09,61.696c7.313,7.313,5.721,5.72,12.132,12.131l-23.677,23.676  c-2.928,2.929-2.928,7.674,0,10.602c2.929,2.927,7.674,2.927,10.602,0c4.49-4.49,42.816-42.817,47.312-47.313  c7.755-7.757,7.754-20.307,0-28.063c-5.496-5.496-9.8-11.082-19.303-11.082c-5.3,0-10.283,2.063-14.032,5.812  c-0.953,0.953-154.458,154.458-159.603,159.603c-3.66-2.896-8.149-4.48-12.887-4.48c-10.027,0-14.443,5.812-21.183,12.554  c-1.794-1.067-3.736-1.845-5.777-2.298l-83.551-83.553C190.033,40.228,124.923-20.985,57.204,6.893  c-4.944,2.036-6.225,8.454-2.448,12.233l51.393,51.392l-8.859,33.059l-33.059,8.858L15.828,64.032  c-4.048-4.048-10.975-2.234-12.519,3.278c-8.201,29.264-0.56,60.18,19.942,80.684c20.176,20.175,48.992,27.28,76.35,21.015  l80.429,80.429L27.954,401.516c-35.555,35.558-10.618,97.089,40.223,97.082c14.565-0.001,29.134-5.546,40.224-16.634  l114.086-114.086c2.928-2.929,2.928-7.674,0-10.602c-2.929-2.927-7.674-2.927-10.602,0L97.8,471.363  c-16.336,16.334-42.913,16.334-59.243,0c-16.335-16.334-16.335-42.912,0-59.244c5.093-5.093,169.304-169.304,178.408-178.409  l59.244,59.244l-47.332,47.332c-2.928,2.929-2.928,7.674,0,10.602c2.928,2.926,7.673,2.928,10.602,0l21.001-21l82.565,82.565  c-6.146,27.196,0.747,56.079,21.007,76.339C379.017,503.757,399.262,512,421.057,512c11.495,0,22.818-2.261,33.648-6.719  c4.933-2.029,6.233-8.447,2.448-12.233l-51.392-51.392l8.858-33.059l33.059-8.859l48.404,48.405c1.883,1.882,4.626,2.625,7.199,1.95  c2.577-0.675,4.602-2.665,5.319-5.228C526.71,380.231,468.027,323.157,402.755,345.921z M463.155,36.64  c1.296,0,2.515,0.505,3.43,1.421c5.542,5.542,6.692,6.171,6.692,8.701c0,1.295-0.505,2.514-1.421,3.43l-13.033,13.034  c-6.89-6.889-6.489-6.488-12.131-12.131C460.96,36.825,460.548,36.64,463.155,36.64z M280.764,199.289l29.865,29.865  c2.278,2.277,2.278,5.983,0,8.261l-6.002,6.003L266.5,205.292l6.003-6.002C274.785,197.004,278.481,197.004,280.764,199.289z   M80.287,156.225c-17.8-0.001-34.291-6.689-46.434-18.832c-13.845-13.846-20.395-32.88-18.579-52.711l41.415,41.416  c1.895,1.893,4.657,2.633,7.241,1.939l41.42-11.097c2.587-0.693,4.607-2.714,5.3-5.3l11.098-41.42  c0.693-2.588-0.046-5.347-1.939-7.241L73.996,17.163c22.681-5.434,46.632,0.192,63.264,16.824  C181,77.725,143.788,156.225,80.287,156.225z M115.58,163.785c17.41-7.586,33.642-21.354,43.989-39.848l73.034,73.035  c-0.906,0.762-40.919,40.81-41.972,41.864L115.58,163.785z M227.566,223.107c15.64-15.64,14.892-15.016,16.136-15.464  c4.814-1.722,3.091,0.154,55.643,51.694c1.722,1.722,3.13,2.727,3.212,5.07c0.011,0.286-0.008,0.661-0.061,0.978  c-0.041,0.261-0.141,0.657-0.262,0.967c-0.095,0.247-0.206,0.484-0.419,0.82c-0.182,0.286-0.412,0.588-0.661,0.836l-14.344,14.344  L227.566,223.107z M348.258,396.463l-77.177-77.177c43.923-43.923,41.029-40.975,41.862-41.974l75.161,75.161  C370.434,362.355,356.246,378.125,348.258,396.463z M496.635,427.492l-41.416-41.417c-1.895-1.895-4.655-2.632-7.241-1.939  l-41.42,11.098c-2.587,0.693-4.607,2.714-5.3,5.3l-11.098,41.42c-0.693,2.588,0.046,5.347,1.939,7.241l45.815,45.815  c-5.537,1.326-11.174,1.995-16.857,1.995c-17.79,0-34.271-6.684-46.407-18.819c-43.507-43.505-7.134-122.239,56.973-122.239  C470.8,355.95,500.234,388.192,496.635,427.492z"/>
<path d="M191.16,166.474c-12.669-12.67-16.309-18.181-26.401-18.181c-9.213,0-13.8,5.579-16.942,8.723  c-3.748,3.748-5.811,8.731-5.811,14.031c0,10.093,5.523,13.742,18.18,26.401c3.748,3.747,8.731,5.81,14.031,5.81  c9.123,0,13.656-5.436,16.944-8.723C198.896,186.797,198.896,174.208,191.16,166.474z M180.559,183.934  c-2.96,2.96-3.872,4.331-6.342,4.331c-2.644,0-2.406-0.395-15.799-13.79c-0.916-0.916-1.42-2.134-1.42-3.429  c0-2.456,1.347-3.357,4.33-6.341c1.896-1.894,4.965-1.896,6.861-0.001l12.37,12.371  C182.449,178.966,182.449,182.044,180.559,183.934z"/>
<path d="M356.802,360.178c7.754-7.756,7.756-20.308,0-28.062c-12.669-12.67-16.309-18.181-26.401-18.181  c-5.299,0-10.282,2.063-14.032,5.811c-3.147,3.148-8.722,7.732-8.722,16.942c0,5.301,2.064,10.284,5.811,14.03  c12.664,12.666,16.308,18.181,26.4,18.181C349.073,368.9,353.66,363.321,356.802,360.178z M343.29,352.487  c-1.896,1.894-4.965,1.896-6.861,0.001c-13.386-13.388-13.789-13.156-13.789-15.8c0-2.468,1.372-3.382,4.33-6.34  c1.895-1.895,4.964-1.898,6.861-0.002c13.387,13.388,13.79,13.156,13.79,15.8C347.621,348.612,346.256,349.521,343.29,352.487z"/>
<path d="M238.635,271.282c-4.452-4.451-10.371-6.903-16.668-6.903c-6.296,0-12.216,2.452-16.667,6.903L53.055,423.529  c-4.452,4.451-6.904,10.371-6.904,16.667c0,20.848,25.354,31.546,40.237,16.668l152.247-152.248  C247.825,295.426,247.825,280.472,238.635,271.282z M228.034,294.014C64.094,457.955,74.796,448.774,69.721,448.774  c-7.672,0-11.419-9.29-6.064-14.642C227.596,270.19,216.892,279.372,221.969,279.372c2.292,0,4.446,0.893,6.065,2.512  C231.378,285.228,231.378,290.67,228.034,294.014z"/>
<g>
</g>
<g>
</g>
<g>
</g>
<g>
</g>
<g>
</g>
<g>
</g>
<g>
</g>
<g>
</g>
<g>
</g>
<g>
</g>
<g>
</g>
<g>
</g>
<g>
</g>
<g>
</g>
<g>
</g>
</svg>
