<svg xmlns="http://www.w3.org/2000/svg" viewBox="0 0 48 48"><defs><style>.cls-1{fill:#fc6;}.cls-2{fill:#ffde76;}.cls-3{fill:#f16f39;}.cls-4{fill:#f8834b;}.cls-5{fill:#7c7d7d;}.cls-6{fill:#919191;}.cls-7{fill:#9fdbf3;}.cls-8{fill:#b2e5fb;}.cls-9{fill:#374f68;}.cls-10{fill:#425b72;}</style></defs><title>Safety helmet and Google</title><g id="Safety_helmet_and_Google" data-name="Safety helmet and Google"><path class="cls-1" d="M41,21H7a17.16,17.16,0,0,1,3-10.68c3.52-3.8,3.17-3.49,3.76-3.9A16.7,16.7,0,0,1,21,3.27h6A16.8,16.8,0,0,1,34.71,6.8C38.13,10.49,41,12.84,41,21Z"/><path class="cls-2" d="M41,19H11a2,2,0,0,1-2-1.76,16.87,16.87,0,0,1,3-8.92l1.76-1.9A16.7,16.7,0,0,1,21,3.27h6A16.8,16.8,0,0,1,34.71,6.8L38,10.32A16.88,16.88,0,0,1,41,19Z"/><path class="cls-1" d="M43,21v3c-17.72,2.54-18,2.87-38,0V21Z"/><path class="cls-2" d="M43,21v2.29C36.18,24.26,32.16,25,26,25A121.16,121.16,0,0,1,9,23.28,2.32,2.32,0,0,1,7,21Z"/><path class="cls-3" d="M27,3V21H21V3a2,2,0,0,1,2-2h2A2,2,0,0,1,27,3Z"/><path class="cls-4" d="M27,3c0,16.82-.1,16,0,16a4,4,0,0,1-4-4V1h2A2,2,0,0,1,27,3Z"/><path class="cls-3" d="M16.51,13.26a1.63,1.63,0,0,1-2.66.66l-3.66-3.41a1,1,0,0,1,0-1.41c2.07-2.26,2-2.18,2.19-2.3a1,1,0,0,1,1.35.39C16.7,12.47,16.82,12.38,16.51,13.26Z"/><path class="cls-4" d="M16.51,13.26a1.6,1.6,0,0,1-1.66-.34L11.19,9.51a1,1,0,0,1,0-1.41l1.19-1.3a1,1,0,0,1,1.35.39C16.7,12.47,16.82,12.38,16.51,13.26Z"/><path class="cls-3" d="M34.15,13.92l3.66-3.41a1,1,0,0,0,0-1.41L35.93,7a1,1,0,0,0-1.61.19l-2.7,4.73A1.63,1.63,0,0,0,34.15,13.92Z"/><path class="cls-5" d="M39,31a2,2,0,0,1,2,2v8.56a2,2,0,0,1-1.37,1.9L29,47l-5-3-5,3L8.37,43.46A2,2,0,0,1,7,41.56V33a2,2,0,0,1,2-2Z"/><path class="cls-6" d="M41,33c0,9.42.16,9.08-.46,9.82S40.39,43.21,29,47l-5-3-3.21,1.93L10.37,42.46A2,2,0,0,1,9,40.56c0-9.44-.1-8.94.27-9.56H39A2,2,0,0,1,41,33Z"/><path class="cls-7" d="M21.94,40.57l-3.42,2L11,40.12V35H37v5.12l-7.52,2.5-3.42-2A4,4,0,0,0,21.94,40.57Z"/><path class="cls-8" d="M37,35v5.12l-7.52,2.5c-3.1-1.86-4.39-3-6.47-2.49a10.33,10.33,0,0,0-2.7,1.42L15.05,39.8A3,3,0,0,1,13,37V35Z"/><rect class="cls-9" x="3" y="34" width="4" height="6"/><path class="cls-10" d="M7,34v4a2,2,0,0,1-2-2V34Z"/><rect class="cls-9" x="41" y="34" width="4" height="6" transform="translate(86 74) rotate(-180)"/><path class="cls-4" d="M31.49,13.26a1.6,1.6,0,0,0,1.66-.34l3.66-3.41a1,1,0,0,0,0-1.41L35.67,6.8a1,1,0,0,0-1.35.39C31.3,12.47,31.18,12.38,31.49,13.26Z"/><path class="cls-10" d="M41,34v4a2,2,0,0,0,2-2V34Z"/></g></svg>